<?xml version="1.0" encoding="UTF-8"?>
<!DOCTYPE svg PUBLIC "-//W3C//DTD SVG 1.1//EN" "http://www.w3.org/Graphics/SVG/1.1/DTD/svg11.dtd">
<!-- Creator: CorelDRAW 2017 -->
<svg xmlns="http://www.w3.org/2000/svg" xml:space="preserve" width="71.1455mm" height="48.2018mm" version="1.1" style="shape-rendering:geometricPrecision; text-rendering:geometricPrecision; image-rendering:optimizeQuality; fill-rule:evenodd; clip-rule:evenodd"
viewBox="0 0 4954 3356"
 xmlns:xlink="http://www.w3.org/1999/xlink">
 <defs>
  <style type="text/css">
   <![CDATA[
    .str0 {stroke:#00352E;stroke-width:73.6901}
    .str1 {stroke:#00352E;stroke-width:13.9261}
    .str2 {stroke:#2E9587;stroke-width:13.9261}
    .fil0 {fill:none}
    .fil1 {fill:#00352E}
    .fil2 {fill:#2E9587}
   ]]>
  </style>
 </defs>
 <g id="Camada_x0020_1">
  <metadata id="CorelCorpID_0Corel-Layer"/>
  <g id="_1690006022880">
   <g>
   </g>
   <path class="fil0 str0" d="M4917 2380l-5 -294 -17 -63m-1806 36l-11 35 0 285"/>
   <line class="fil0 str1" x1="4917" y1="2380" x2="3079" y2= "2380" />
   <polyline class="fil0 str0" points="4895,2023 4867,1975 4820,1925 4774,1906 4640,1864 4504,1822 4543,1775 4572,1729 4587,1694 4609,1643 4618,1610 4632,1549 4640,1489 4647,1419 4649,1336 4645,1275 4640,1218 4633,1147 4628,1101 4620,1045 4606,980 4595,924 4577,863 4566,822 4547,769 4531,730 4505,678 4475,631 4441,586 4414,555 4373,516 4334,486 4290,458 4243,435 4187,416 4142,403 4088,394 4060,392 4027,389 3966,390 3942,391 3872,405 3830,419 3798,433 3772,450 3758,459 3726,483 3708,502 3684,526 "/>
   <polyline class="fil0 str0" points="3685,525 3674,538 3663,552 3653,565 3641,582 3635,591 3623,612 3616,626 3605,646 3597,662 3589,679 3580,701 3573,719 3569,732 3563,750 3556,773 3550,791 3545,808 3540,825 3535,847 3530,866 3525,888 3518,917 3514,942 3510,967 3507,988 3504,1012 3500,1034 3497,1063 3494,1084 3493,1096 3491,1120 3489,1141 3486,1172 3481,1216 3476,1236 3473,1253 3467,1268 3462,1281 3452,1296 3443,1309 3429,1324 3422,1332 3412,1339 3401,1348 3387,1357 3373,1365 3352,1376 3332,1383 3318,1388 3297,1393 3280,1397 3265,1400 3250,1403 3228,1405 3215,1405 3215,1445 3232,1452 3253,1460 3268,1465 3301,1473 3318,1475 3340,1475 3375,1472 3392,1468 3410,1461 3424,1453 3440,1442 3459,1429 3467,1421 3484,1407 3496,1394 3475,1424 3464,1435 3455,1442 3445,1450 3437,1454 3422,1464 3400,1475 3376,1484 3352,1489 3329,1493 3309,1493 3289,1493 3255,1492 3242,1490 3236,1488 3241,1507 3246,1522 3251,1537 3260,1557 3271,1579 3289,1604 3305,1618 3326,1632 3352,1642 3384,1648 3416,1649 3446,1649 3443,1669 3438,1683 3433,1692 3425,1701 3413,1706 3401,1709 3389,1710 3375,1710 3343,1710 3332,1709 3362,1744 3376,1760 3388,1771 3397,1777 3417,1792 3448,1809 3472,1822 3495,1834 3513,1843 3477,1854 3436,1868 3376,1884 3328,1900 3298,1909 3257,1924 3206,1947 3163,1973 3122,2007 3104,2031 3089,2059 3081,2086 "/>
   <polyline class="fil0 str0" points="3892,2383 3883,2333 3875,2288 3870,2249 3854,2167 3844,2105 3833,2054 3826,2008 3804,1896 3795,1838 3788,1794 3800,1770 3808,1740 3815,1710 3821,1669 3821,1640 3820,1618 3840,1637 3860,1654 3896,1678 3941,1701 3970,1710 3995,1716 4026,1715 4046,1712 4082,1701 4106,1691 4143,1670 4165,1657 4195,1634 4201,1628 4231,1636 4252,1639 4283,1643 4293,1644 4300,1644 4301,1676 4305,1710 4308,1745 4308,1753 4296,1793 4282,1833 4275,1860 4263,1893 4242,1970 4231,2007 4222,2041 4209,2083 4203,2101 4188,2154 4184,2168 4177,2189 4170,2214 4161,2247 4152,2273 4144,2300 4130,2354 4124,2380 "/>
   <polyline class="fil0 str0" points="4201,1628 4185,1620 4163,1610 4144,1597 4122,1584 4112,1576 4180,1583 4212,1582 4241,1581 4290,1576 4298,1573 4296,1553 4279,1568 4266,1579 "/>
   <polyline class="fil0 str0" points="4296,1553 4324,1529 4346,1513 4362,1491 4368,1450 4376,1407 4392,1334 4397,1304 4401,1272 4406,1242 4407,1207 4408,1178 4409,1147 4409,1109 4406,1075 4401,1040 4393,997 4383,963 4371,931 4355,898 4339,866 4323,844 4307,821 4284,797 4267,778 4242,756 4217,736 4195,720 4162,700 4141,689 4126,681 4113,700 4102,715 4090,732 4076,752 4065,770 4050,793 4039,811 4026,830 4013,850 4006,863 3985,893 3974,911 3953,941 3940,961 3927,980 3914,1000 3901,1020 3886,1041 3873,1061 3864,1075 3860,1016 3858,990 3856,947 3856,931 3799,1033 3792,1023 3781,1011 3762,1001 3742,996 3715,996 3690,999 3665,1009 3652,1020 3643,1028 3640,1031 3644,1075 3650,1134 3660,1244 3668,1331 3673,1384 3681,1426 3691,1469 3706,1490 3725,1512 3743,1531 3767,1557 3800,1594 3820,1618 "/>
   <polygon class="fil1 str1" points="3826,2008 3804,1896 3795,1838 3788,1794 3800,1770 3808,1740 3815,1710 3821,1669 3821,1640 3820,1618 3800,1594 3767,1557 3743,1531 3725,1512 3706,1490 3691,1469 3681,1426 3673,1384 3668,1331 3660,1244 3650,1134 3644,1075 3640,1031 3643,1028 3652,1020 3665,1009 3690,999 3715,996 3742,996 3762,1001 3781,1011 3792,1023 3799,1033 3856,931 3856,947 3858,990 3860,1016 3864,1075 3873,1061 3886,1041 3901,1020 3914,1000 3927,980 3940,961 3953,941 3974,911 3985,893 4006,863 4013,850 4026,830 4039,811 4050,793 4065,770 4076,752 4090,732 4102,715 4113,700 4126,681 4141,689 4162,700 4195,720 4217,736 4242,756 4267,778 4284,797 4307,821 4323,844 4339,866 4355,898 4371,931 4383,963 4393,997 4401,1040 4406,1075 4409,1109 4409,1147 4408,1178 4407,1207 4406,1242 4401,1272 4397,1304 4392,1334 4376,1407 4368,1450 4362,1491 4346,1513 4324,1529 4296,1553 4298,1573 4290,1576 4266,1579 4241,1581 4212,1582 4180,1583 4112,1576 4122,1584 4144,1597 4163,1610 4185,1620 4201,1628 4231,1636 4252,1639 4283,1643 4293,1644 4300,1644 4301,1676 4305,1710 4308,1745 4308,1753 4296,1793 4282,1833 4275,1860 4263,1893 4242,1970 4231,2007 4222,2041 4209,2083 4203,2101 4188,2154 4184,2168 4177,2189 4170,2214 4161,2247 4152,2273 4144,2300 4130,2354 4124,2380 4917,2380 4912,2086 4895,2023 4867,1975 4820,1925 4774,1906 4640,1864 4504,1822 4543,1775 4572,1729 4587,1694 4609,1643 4618,1610 4632,1549 4640,1489 4647,1419 4649,1336 4645,1275 4640,1218 4633,1147 4628,1101 4620,1045 4606,980 4595,924 4577,863 4566,822 4547,769 4531,730 4505,678 4475,631 4441,586 4414,555 4373,516 4334,486 4290,458 4243,435 4187,416 4142,403 4088,394 4060,392 4027,389 3966,390 3942,391 3872,405 3830,419 3798,433 3772,450 3758,459 3726,483 3708,502 3685,525 3674,538 3663,552 3653,565 3641,582 3635,591 3623,612 3616,626 3605,646 3597,662 3589,679 3580,701 3573,719 3569,732 3563,750 3556,773 3550,791 3545,808 3540,825 3535,847 3530,866 3525,888 3518,917 3514,942 3510,967 3507,988 3504,1012 3500,1034 3497,1063 3494,1084 3493,1096 3491,1120 3489,1141 3486,1172 3481,1216 3476,1236 3473,1253 3467,1268 3462,1281 3452,1296 3443,1309 3429,1324 3422,1332 3412,1339 3401,1348 3387,1357 3373,1365 3352,1376 3332,1383 3318,1388 3297,1393 3280,1397 3265,1400 3250,1403 3228,1405 3215,1405 3215,1445 3232,1452 3253,1460 3268,1465 3301,1473 3318,1475 3340,1475 3375,1472 3392,1468 3410,1461 3424,1453 3440,1442 3459,1429 3467,1421 3484,1407 3496,1394 3475,1424 3464,1435 3455,1442 3445,1450 3437,1454 3422,1464 3400,1475 3376,1484 3352,1489 3329,1493 3309,1493 3289,1493 3255,1492 3242,1490 3236,1488 3241,1507 3246,1522 3251,1537 3260,1557 3271,1579 3289,1604 3305,1618 3326,1632 3352,1642 3384,1648 3416,1649 3446,1649 3443,1669 3438,1683 3433,1692 3425,1701 3413,1706 3401,1709 3389,1710 3375,1710 3343,1710 3332,1709 3362,1744 3376,1760 3388,1771 3397,1777 3417,1792 3448,1809 3472,1822 3495,1834 3513,1843 3477,1854 3436,1868 3376,1884 3328,1900 3298,1909 3257,1924 3206,1947 3163,1973 3122,2007 3104,2031 3089,2059 3079,2094 3079,2380 3892,2380 3883,2333 3875,2288 3870,2249 3854,2167 3844,2105 3833,2054 "/>
   <g>
    <polyline class="fil0 str0" points="3002,2369 2997,2075 2994,2054 2992,2046 2984,2018 2976,1998 2968,1980 2961,1964 2946,1935 2934,1918 2919,1899 2897,1880 2874,1864 2845,1844 2813,1828 2776,1810 2742,1796 2704,1782 2671,1771 2640,1761 2599,1748 2565,1737 2518,1724 2474,1711 2392,1686 2352,1678 2308,1533 2347,1492 2381,1453 2406,1419 2423,1393 2452,1343 2481,1284 2498,1243 2513,1230 2525,1217 2534,1203 2543,1190 2549,1176 2555,1162 2559,1152 2565,1133 2569,1118 2572,1094 2573,1048 2571,1031 2566,1016 2559,1000 2550,992 2540,985 2529,981 2519,981 2514,983 2520,931 2525,882 2529,826 2526,751 2519,707 2513,671 2505,639 2497,619 2481,584 2471,567 2452,542 2434,522 2420,508 2404,492 2387,478 2361,460 2338,445 2318,436 2293,424 2269,414 2245,405 2223,398 2203,393 2179,389 2160,386 2099,383 2032,384 2019,386 1997,389 1974,393 1958,395 1933,402 1914,408 1900,413 1878,421 1856,431 1838,439 1816,451 1799,463 1784,475 1772,483 1761,491 1746,506 1732,519 1722,530 1711,545 1702,556 1694,568 1684,584 1669,617 1661,641 1653,667 1647,699 1643,720 1640,745 1638,773 1638,798 1638,845 1639,860 1641,888 1643,912 1647,939 1653,981 1654,984 1648,982 1638,980 1629,981 1621,985 1616,990 1608,998 1604,1005 1599,1017 1596,1028 1594,1046 1592,1067 1593,1096 1595,1110 1600,1127 1607,1144 1614,1164 1619,1175 1626,1188 1634,1204 1644,1216 1652,1226 1660,1234 1666,1238 1670,1247 1680,1270 1693,1298 1708,1326 1718,1346 1728,1366 1740,1387 1753,1407 1766,1427 1778,1444 1794,1465 1812,1487 1832,1508 1855,1531 1876,1549 1895,1565 1921,1581 1914,1658 1846,1669 1803,1678 1776,1685 1740,1696 1707,1707 1666,1719 1629,1730 1582,1743 1551,1754 1514,1764 1480,1775 1452,1784 1420,1796 1391,1808 1367,1822 1332,1840 1302,1858 1282,1872 1266,1883 1248,1900 1233,1916 1218,1945 1204,1969 1190,1998 1176,2040 1167,2069 1164,2083 1164,2369 "/>
    <polyline class="fil0 str0" points="1654,984 1687,1024 1704,1053 1717,1077 1735,1109 1740,1120 1734,1058 1730,1031 1727,1006 1722,977 1718,941 1713,905 1712,869 1713,832 1729,799 1741,778 1755,759 1773,738 1792,722 1810,709 1828,697 1847,687 1866,680 1892,673 1899,673 1909,683 1921,694 1928,702 1938,711 1947,719 1958,728 1977,745 1999,761 2021,776 2039,788 2062,800 2085,811 2109,822 2142,835 2182,846 2219,857 2238,861 2262,866 2287,871 2332,877 2370,880 2420,881 2449,882 2452,881 2450,922 2447,945 2443,974 2439,1002 2433,1034 2428,1058 2417,1105 2415,1113 2416,1122 2443,1054 2450,1037 2461,1020 2470,1010 2478,1003 2492,994 2507,987 2516,982 "/>
    <polyline class="fil0 str0" points="1776,1685 1774,1731 1772,1768 1773,1798 1776,1827 1783,1853 1794,1887 1803,1908 1812,1929 1822,1946 1833,1967 1843,1985 1862,2019 1886,2053 1905,2078 1928,2105 1942,2123 1969,2152 1996,2176 2021,2199 2052,2222 2070,2237 2082,2248 2104,2232 2119,2220 2145,2201 2160,2188 2178,2172 2189,2162 2203,2148 2216,2133 2232,2114 2244,2100 2260,2080 2273,2062 2290,2040 2304,2017 2316,2000 2327,1981 2343,1953 2351,1936 2363,1912 2371,1894 2378,1874 2385,1851 2392,1825 2393,1803 2396,1774 2396,1746 2394,1721 2392,1686 "/>
    <polygon class="fil1 str0" points="2022,1688 2008,1698 1991,1712 1973,1733 1961,1748 1970,1768 1988,1793 2009,1814 2030,1832 2045,1843 2045,1851 2041,1857 2035,1875 2026,1893 2017,1916 2011,1933 1999,1962 1993,1977 1977,2019 1961,2058 1972,2076 1982,2090 1994,2106 2006,2118 2018,2130 2031,2142 2042,2150 2056,2161 2064,2167 2076,2176 2084,2183 2099,2171 2109,2162 2121,2154 2132,2145 2148,2130 2177,2100 2185,2093 2196,2076 2206,2058 2198,2035 2139,1893 2129,1867 2123,1851 2122,1838 2136,1828 2148,1818 2166,1801 2174,1793 2185,1779 2201,1756 2205,1747 2187,1724 2173,1709 2160,1697 2147,1688 "/>
    <line class="fil0 str0" x1="3002" y1="2369" x2="1164" y2= "2369" />
    <polyline class="fil0 str0" points="2308,1533 2286,1553 2250,1577 2220,1593 2199,1603 2162,1615 2116,1622 2068,1622 2032,1619 2005,1615 1974,1605 1952,1597 1921,1581 "/>
    <polygon class="fil1 str1" points="1164,2083 1164,2369 3002,2369 2997,2075 2994,2054 2992,2046 2984,2018 2976,1998 2968,1980 2961,1964 2946,1935 2934,1918 2919,1899 2897,1880 2874,1864 2845,1844 2813,1828 2776,1810 2742,1796 2704,1782 2671,1771 2640,1761 2599,1748 2565,1737 2518,1724 2474,1711 2392,1686 2394,1721 2396,1746 2396,1774 2393,1803 2392,1825 2385,1851 2378,1874 2371,1894 2363,1912 2351,1936 2343,1953 2327,1981 2316,2000 2304,2017 2290,2040 2273,2062 2260,2080 2244,2100 2232,2114 2216,2133 2203,2148 2189,2162 2178,2172 2160,2188 2145,2201 2119,2220 2104,2232 2082,2248 2070,2237 2052,2222 2021,2199 1996,2176 1969,2152 1942,2123 1928,2105 1905,2078 1886,2053 1862,2019 1843,1985 1833,1967 1822,1946 1812,1929 1803,1908 1794,1887 1783,1853 1776,1827 1773,1798 1772,1768 1774,1731 1776,1685 1740,1696 1707,1707 1666,1719 1629,1730 1582,1743 1551,1754 1514,1764 1480,1775 1452,1784 1420,1796 1391,1808 1367,1822 1332,1840 1302,1858 1282,1872 1266,1883 1248,1900 1233,1916 1218,1945 1204,1969 1190,1998 1176,2040 1167,2069 "/>
    <polygon class="fil1 str1" points="1958,728 1977,745 1999,761 2021,776 2039,788 2062,800 2085,811 2109,822 2142,835 2182,846 2219,857 2238,861 2262,866 2287,871 2332,877 2370,880 2420,881 2449,882 2452,881 2450,922 2447,945 2443,974 2439,1002 2433,1034 2428,1058 2417,1105 2415,1113 2416,1122 2443,1054 2450,1037 2461,1020 2470,1010 2478,1003 2492,994 2507,987 2514,983 2520,931 2525,882 2529,826 2526,751 2519,707 2513,671 2505,639 2497,619 2481,584 2471,567 2452,542 2434,522 2420,508 2404,492 2387,478 2361,460 2338,445 2318,436 2293,424 2269,414 2245,405 2223,398 2203,393 2179,389 2160,386 2099,383 2032,384 2019,386 1997,389 1974,393 1958,395 1933,402 1914,408 1900,413 1878,421 1856,431 1838,439 1816,451 1799,463 1784,475 1772,483 1761,491 1746,506 1732,519 1722,530 1711,545 1702,556 1694,568 1684,584 1669,617 1661,641 1653,667 1647,699 1643,720 1640,745 1638,773 1638,798 1638,845 1639,860 1641,888 1643,912 1647,939 1653,981 1654,984 1687,1024 1704,1053 1717,1077 1735,1109 1740,1120 1734,1058 1730,1031 1727,1006 1722,977 1718,941 1713,905 1712,869 1713,832 1729,799 1741,778 1755,759 1773,738 1792,722 1810,709 1828,697 1847,687 1866,680 1892,673 1899,673 1909,683 1921,694 1928,702 1938,711 1947,719 "/>
    <polygon class="fil1 str1" points="2147,1688 2022,1688 2008,1698 1991,1712 1973,1733 1961,1748 1970,1768 1988,1793 2009,1814 2030,1832 2045,1843 2045,1851 2041,1857 2035,1875 2026,1893 2017,1916 2011,1933 1999,1962 1993,1977 1977,2019 1961,2058 1972,2076 1982,2090 1994,2106 2006,2118 2018,2130 2031,2142 2042,2150 2056,2161 2064,2167 2076,2176 2084,2183 2099,2171 2109,2162 2121,2154 2132,2145 2148,2130 2177,2100 2185,2093 2196,2076 2206,2058 2198,2035 2139,1893 2129,1867 2123,1851 2122,1838 2136,1828 2148,1818 2166,1801 2174,1793 2185,1779 2201,1756 2205,1747 2187,1724 2173,1709 2160,1697 "/>
   </g>
   <path class="fil2 str2" d="M2826 1784c66,-69 110,-61 133,24 0,1 0,2 1,2l0 1 0 6 -2 7c-122,589 -590,1022 -1138,1052 -6,0 -11,1 -17,1l-6 -4c-34,-32 -34,-69 2,-111l7 -3 19 -2c476,-32 884,-422 995,-951l2 -11 4 -11 0 0zm-978 -1773c703,61 1219,751 1154,1542 -39,61 -121,62 -147,-9 59,-719 -393,-1345 -1011,-1398 -619,-54 -1170,487 -1230,1208 -60,718 389,1344 1005,1401 38,50 32,93 -18,128 -277,-25 -525,-149 -719,-338l-553 729c-56,51 -82,63 -108,68 -30,5 -57,8 -81,8 -89,0 -133,-40 -133,-130 0,-22 2,-46 8,-74 3,-16 7,-23 12,-41 2,-8 7,-25 14,-36 3,-5 9,-12 12,-19 3,-6 8,-13 13,-20 5,-8 11,-16 16,-23 5,-7 10,-12 11,-14l597 -657c0,0 1,0 1,0l9 -10c-183,-272 -278,-620 -247,-990 67,-793 691,-1387 1395,-1326l0 0zm1112 1797l1 2 -1 -2zm-1418 -1514c90,1 110,40 60,118l-9 6c-481,224 -751,696 -659,1148l3 18 -1 7c-31,43 -66,53 -106,28l-5 -4c-122,-519 171,-1063 706,-1316l6 -3 5 -1 0 0z"/>
  </g>
 </g>
</svg>
